<?xml version="1.0" standalone="no"?>
<!DOCTYPE svg PUBLIC "-//W3C//DTD SVG 20010904//EN"
 "http://www.w3.org/TR/2001/REC-SVG-20010904/DTD/svg10.dtd">
<svg version="1.0" xmlns="http://www.w3.org/2000/svg"
 width="281.000000pt" height="180.000000pt" viewBox="0 0 281.000000 180.000000"
 preserveAspectRatio="xMidYMid meet">

<g transform="translate(0.000000,180.000000) scale(0.100000,-0.100000)"
fill="#000000" stroke="none">
<path d="M1912 1393 c-20 -8 -42 -59 -42 -96 0 -18 -3 -37 -6 -40 -4 -4 -6
-49 -6 -102 2 -95 2 -95 -27 -110 -29 -14 -29 -14 -35 20 -7 37 -47 75 -79 75
-16 0 -18 4 -12 28 4 15 8 50 9 77 l1 50 -119 3 c-78 2 -123 -1 -132 -9 -19
-16 -18 -93 1 -109 29 -24 18 -47 -25 -54 -31 -5 -41 -11 -46 -31 -6 -25 -21
-32 -40 -17 -5 4 -2 0 8 -9 14 -13 17 -33 17 -96 l-1 -79 -36 2 -37 3 35 -7
c19 -4 35 -13 34 -19 -1 -7 -2 -44 -2 -83 l-2 -69 -102 -4 -103 -3 103 -2 102
-2 0 -76 c0 -54 5 -84 17 -105 10 -16 20 -29 24 -29 4 0 31 12 61 26 29 14 42
23 28 19 -60 -17 -87 -17 -103 0 -15 15 -17 40 -12 233 8 298 11 320 41 334
19 9 33 9 59 -1 66 -24 128 -25 177 -3 27 12 57 18 73 14 49 -9 55 -44 55
-311 l0 -240 -47 -4 c-27 -3 24 -3 112 -2 88 2 170 6 182 10 18 6 22 3 25 -21
3 -26 8 -30 49 -37 26 -5 66 -5 90 0 l44 9 3 69 c2 38 8 73 14 76 9 6 8 11 -1
22 -8 11 -10 34 -5 76 8 72 7 73 -95 75 l-68 1 -11 85 c-11 88 -30 120 -73
120 -15 0 -19 7 -19 35 0 19 5 35 10 35 6 0 10 8 9 18 0 10 -3 12 -6 5 -2 -7
-15 -13 -28 -13 -22 0 -24 5 -28 58 l-3 57 -2 -57 c-2 -44 -6 -58 -17 -58 -11
0 -15 14 -17 58 l-1 57 -7 -60 -7 -60 -3 60 -3 60 -7 -60 -7 -60 -1 63 -2 62
44 0 45 0 4 -52 3 -53 2 53 c2 66 24 67 33 1 l6 -44 1 41 c1 23 -5 55 -13 70
-10 20 -15 23 -15 12 0 -15 -9 -18 -50 -18 l-50 0 0 38 c0 84 64 111 86 37 7
-22 13 -32 13 -22 1 28 -27 87 -41 86 -7 0 -19 -3 -26 -6z m-204 -145 l3 -38
-49 0 c-27 0 -83 -3 -125 -6 l-77 -7 0 31 c0 62 1 63 129 60 l116 -3 3 -37z
m-53 -58 l-50 -7 43 -1 c41 -2 43 -4 40 -29 -4 -40 -60 -59 -136 -47 -52 8
-57 11 -60 36 -3 26 -1 27 50 31 l53 3 -60 4 -60 3 50 7 c28 4 79 7 115 7 l65
0 -50 -7z m325 -100 c0 -14 -9 -21 -34 -25 -49 -10 -71 -3 -74 23 -3 21 0 22
52 22 49 0 56 -2 56 -20z m50 -169 c5 -11 10 -54 10 -96 0 -114 -1 -115 -120
-115 -68 0 -101 4 -106 12 -5 7 -10 53 -12 102 -6 113 -3 116 125 116 81 0 94
-2 103 -19z m50 -116 c8 30 8 29 9 -7 1 -28 -3 -38 -14 -38 -11 0 -15 10 -14
38 2 35 2 35 7 7 l5 -30 7 30z m80 -14 c0 -38 -2 -40 -30 -39 -28 1 -30 4 -30
40 0 36 2 38 30 38 28 0 30 -2 30 -39z m80 -1 c0 -39 -1 -40 -35 -40 -34 0
-35 1 -35 40 0 39 1 40 35 40 34 0 35 -1 35 -40z m0 -156 l0 -104 -85 0 -85 0
0 108 0 107 85 -3 85 -3 0 -105z m-413 -60 c-3 -3 -12 -4 -19 -1 -8 3 -5 6 6
6 11 1 17 -2 13 -5z"/>
<path d="M2121 784 c0 -11 3 -14 6 -6 3 7 2 16 -1 19 -3 4 -6 -2 -5 -13z"/>
<path d="M2090 655 l0 -45 65 0 65 0 0 45 0 45 -65 0 -65 0 0 -45z m120 0 l0
-35 -55 0 -55 0 0 35 0 35 55 0 55 0 0 -35z"/>
<path d="M1200 1364 l0 -26 -113 4 -112 3 0 -25 c0 -23 -4 -25 -52 -28 -40 -2
-52 1 -56 13 -4 12 -5 11 -3 -2 1 -14 12 -19 51 -21 27 -2 58 1 69 7 12 5 28
12 36 14 9 4 6 6 -7 6 -13 1 -23 6 -23 11 0 6 45 10 116 10 92 0 114 -3 107
-12 -6 -7 -13 -21 -16 -30 -6 -16 1 -18 61 -16 l67 2 -57 3 c-41 3 -58 8 -58
18 0 8 5 17 10 20 8 5 7 11 -1 21 -6 8 -9 23 -6 34 3 11 1 20 -4 20 -5 0 -9
-12 -9 -26z"/>
<path d="M1288 1360 c2 -16 6 -30 8 -30 2 0 4 14 4 30 0 17 -4 30 -8 30 -5 0
-7 -13 -4 -30z"/>
<path d="M860 1352 c0 -4 17 -6 38 -4 58 5 62 10 10 11 -27 1 -48 -3 -48 -7z"/>
<path d="M1337 1249 c4 -13 8 -18 11 -10 2 7 -1 18 -6 23 -8 8 -9 4 -5 -13z"/>
<path d="M1154 1159 c1 -48 4 -85 9 -82 4 2 7 22 7 43 0 36 2 39 33 43 32 4
32 4 -5 5 -35 2 -37 4 -40 40 -2 20 -4 -2 -4 -49z"/>
<path d="M1982 1210 c0 -14 2 -19 5 -12 2 6 2 18 0 25 -3 6 -5 1 -5 -13z"/>
<path d="M1843 1180 c0 -25 2 -35 4 -22 2 12 2 32 0 45 -2 12 -4 2 -4 -23z"/>
<path d="M1350 1187 c0 -12 -9 -17 -27 -18 -17 -1 -21 -3 -10 -6 10 -3 17 -15
18 -31 1 -20 2 -22 6 -7 2 11 9 30 15 42 6 13 8 26 5 30 -4 3 -7 -1 -7 -10z"/>
<path d="M793 1153 c-32 -4 -33 -6 -32 -51 1 -26 4 -58 8 -72 6 -19 2 -32 -16
-53 -13 -16 -23 -39 -23 -53 l0 -24 -132 -2 -133 -2 160 -6 160 -5 6 -50 c5
-45 6 -46 7 -12 l2 37 120 0 120 0 0 -100 0 -100 -79 0 c-43 0 -99 3 -125 6
l-46 7 0 53 0 54 -47 -2 c-44 -1 -45 -2 -10 -5 40 -5 38 0 41 -105 0 -25 5
-38 14 -38 7 0 10 5 7 10 -3 6 3 10 13 10 18 0 19 -3 9 -25 -7 -13 -22 -29
-34 -34 -19 -9 -23 -18 -23 -61 l0 -49 -145 -4 -145 -3 147 1 148 0 3 27 c4
31 8 32 72 17 49 -11 193 -2 185 11 -3 5 -1 11 5 15 5 3 10 -1 10 -9 0 -9 3
-16 8 -16 4 0 6 90 4 199 l-3 199 -22 -6 c-18 -5 -19 -7 -4 -10 31 -6 20 -32
-15 -32 -24 0 -29 3 -20 12 9 9 7 14 -6 24 -20 16 -68 18 -77 4 -3 -5 -21 -11
-38 -11 l-32 -1 30 -8 c25 -7 22 -8 -20 -7 -27 0 -59 6 -71 14 -11 7 -24 10
-27 6 -11 -10 -8 36 3 58 10 17 23 19 155 19 144 0 145 0 145 -22 0 -17 3 -20
9 -9 6 9 3 30 -7 57 -15 41 -15 45 2 57 12 9 17 23 14 47 -2 30 -8 36 -33 41
-33 7 -191 8 -242 2z m221 -9 c45 -7 47 -8 44 -38 l-3 -31 -142 -3 -143 -3 0
35 c0 32 3 35 33 39 56 7 163 7 211 1z m-64 -117 l0 -33 -62 1 c-99 3 -98 3
-98 30 0 20 5 25 25 25 19 0 25 -6 26 -22 l2 -23 4 23 c3 14 12 22 24 22 13 0
19 -7 20 -22 l2 -23 4 22 c2 13 13 24 26 26 12 2 23 5 25 6 1 0 2 -14 2 -32z
m78 3 c4 -26 -12 -40 -45 -40 -19 0 -23 5 -23 33 0 31 2 33 33 32 25 -1 33 -6
35 -25z m-55 -127 c10 -9 -13 -33 -32 -33 -9 0 -23 5 -31 10 -13 9 -13 11 0
20 17 11 53 13 63 3z m43 -269 c-7 -17 10 -19 18 -1 2 6 3 1 2 -12 -2 -14 -8
-27 -14 -29 -7 -2 -12 -8 -12 -14 0 -6 7 -8 15 -4 23 8 18 -11 -7 -28 -26 -18
-47 -20 -68 -6 -13 9 -13 12 3 21 12 7 16 17 11 31 -3 11 -1 24 5 27 6 4 -5 7
-24 7 -28 0 -32 -2 -18 -10 36 -19 38 -46 4 -46 -22 0 -55 35 -46 49 3 6 4 11
1 11 -2 0 -13 3 -23 6 -15 6 -16 4 -5 -7 14 -15 16 -39 4 -39 -5 0 -17 6 -27
14 -16 11 -17 17 -7 29 18 21 196 22 188 1z m-180 -46 c8 -13 -30 -48 -52 -48
-22 0 -17 27 8 44 27 19 35 20 44 4z m72 -24 c24 -17 30 -44 8 -44 -7 0 -26
10 -42 22 -16 12 -23 15 -16 8 19 -22 15 -27 -19 -22 l-30 4 22 24 c26 28 46
30 77 8z"/>
<path d="M1608 963 c12 -2 30 -2 40 0 9 3 -1 5 -23 4 -22 0 -30 -2 -17 -4z"/>
<path d="M1303 953 c9 -2 25 -2 35 0 9 3 1 5 -18 5 -19 0 -27 -2 -17 -5z"/>
<path d="M1434 947 c-2 -7 -3 -69 -2 -138 l3 -124 148 0 147 -1 -145 3 -145 4
0 129 0 129 58 4 57 3 -58 2 c-40 1 -59 -2 -63 -11z"/>
<path d="M1744 825 c0 -77 2 -107 3 -67 2 40 2 103 0 140 -2 37 -3 4 -3 -73z"/>
<path d="M1085 930 c-3 -5 -1 -10 4 -10 6 0 11 5 11 10 0 6 -2 10 -4 10 -3 0
-8 -4 -11 -10z"/>
<path d="M815 919 c-11 -16 -1 -19 13 -3 7 8 8 14 3 14 -5 0 -13 -5 -16 -11z"/>
<path d="M1238 903 c12 -2 30 -2 40 0 9 3 -1 5 -23 4 -22 0 -30 -2 -17 -4z"/>
<path d="M1498 900 c-19 -12 -32 -61 -23 -89 3 -11 26 -36 51 -56 42 -35 46
-36 63 -21 14 13 24 14 45 6 39 -15 66 -12 66 6 0 8 7 22 15 31 23 22 13 38
-23 37 -29 -2 -31 0 -21 18 26 48 -19 93 -67 67 -19 -10 -27 -10 -36 -1 -14
14 -47 15 -70 2z m222 -99 c0 -6 -5 -13 -10 -16 -15 -9 -43 3 -35 15 8 13 45
13 45 1z m-52 -27 c26 -18 29 -34 7 -34 -22 0 -75 29 -75 40 0 15 43 12 68 -6z"/>
<path d="M1118 893 c6 -2 18 -2 25 0 6 3 1 5 -13 5 -14 0 -19 -2 -12 -5z"/>
<path d="M452 843 c-2 -22 -7 -23 -73 -23 l-70 0 7 -97 c8 -111 14 -133 14
-50 l0 57 70 0 c63 0 70 2 70 20 0 16 8 20 58 23 l57 3 -62 2 -62 2 -4 43 c-2
23 -4 32 -5 20z m2 -55 c12 -47 10 -49 -61 -46 l-68 3 -3 33 -3 32 64 0 c59 0
65 -2 71 -22z"/>
<path d="M1111 844 c0 -11 3 -14 6 -6 3 7 2 16 -1 19 -3 4 -6 -2 -5 -13z"/>
<path d="M897 833 c-4 -3 -7 -15 -7 -25 0 -12 -7 -18 -21 -18 -15 0 -20 -5
-17 -22 2 -12 10 -23 18 -26 12 -4 13 -2 3 9 -18 18 -16 26 7 32 12 3 20 14
20 26 0 14 6 21 20 21 13 0 20 -7 20 -20 0 -13 7 -20 20 -20 11 0 20 -7 20
-15 0 -8 -7 -15 -16 -15 -9 0 -18 -9 -21 -20 -7 -27 -31 -25 -43 3 -10 22 -10
22 -7 -3 1 -19 8 -26 30 -28 22 -3 27 1 27 17 0 14 6 21 20 21 15 0 20 7 20
25 0 18 -5 25 -19 25 -10 0 -21 9 -24 20 -5 19 -36 27 -50 13z"/>
<path d="M500 630 l0 -80 120 0 120 0 -2 43 -1 42 -4 -37 -4 -38 -110 0 -109
0 0 70 0 69 118 4 117 3 -122 2 -123 2 0 -80z"/>
<path d="M2295 700 c27 -12 87 -12 105 0 10 7 -6 10 -55 9 -48 0 -64 -3 -50
-9z"/>
<path d="M2420 689 c-12 -8 -9 -9 10 -4 19 5 22 4 10 -4 -8 -6 -40 -11 -70
-11 -30 0 -62 -5 -70 -11 -12 -9 -11 -10 7 -6 12 3 49 2 83 -2 53 -6 61 -5 66
11 10 32 -8 47 -36 27z"/>
<path d="M344 675 c-4 -8 -3 -26 0 -40 6 -23 10 -25 61 -22 l55 2 0 38 0 37
-55 0 c-40 0 -57 -4 -61 -15z m106 -19 c0 -20 -6 -25 -40 -31 -47 -8 -60 -2
-60 31 0 22 4 24 50 24 46 0 50 -2 50 -24z"/>
<path d="M1123 674 c-8 -22 13 -42 30 -25 10 10 9 12 -2 9 -7 -2 -16 3 -19 11
-3 10 0 12 12 8 9 -4 16 -2 16 3 0 16 -30 11 -37 -6z"/>
<path d="M2262 630 c0 -19 2 -27 5 -17 2 9 2 25 0 35 -3 9 -5 1 -5 -18z"/>
<path d="M1210 618 c0 -4 7 -8 15 -8 8 0 15 4 15 8 0 5 -7 9 -15 9 -8 0 -15
-4 -15 -9z"/>
<path d="M2431 614 c0 -11 3 -14 6 -6 3 7 2 16 -1 19 -3 4 -6 -2 -5 -13z"/>
<path d="M307 585 c-9 -6 -17 -17 -17 -24 0 -6 -4 -11 -10 -11 -5 0 -10 -6
-10 -14 0 -8 -10 -16 -22 -18 -12 -2 -23 -8 -25 -14 -6 -17 24 -25 54 -13 14
5 47 10 72 10 25 1 56 7 68 15 12 8 30 14 40 15 10 0 -11 7 -46 14 -35 8 -68
12 -72 9 -5 -3 -17 -1 -26 5 -17 9 -17 10 0 16 9 4 24 5 32 1 21 -8 19 1 -3
13 -12 6 -23 5 -35 -4z m23 -60 c10 -12 9 -15 -8 -15 -11 0 -25 7 -32 15 -10
12 -9 15 8 15 11 0 25 -7 32 -15z m79 6 c11 -7 10 -10 -6 -15 -23 -7 -53 2
-53 15 0 11 41 11 59 0z m-126 -28 c-7 -2 -21 -2 -30 0 -10 3 -4 5 12 5 17 0
24 -2 18 -5z"/>
<path d="M2272 570 c0 -14 2 -19 5 -12 2 6 2 18 0 25 -3 6 -5 1 -5 -13z"/>
<path d="M2422 560 c0 -14 2 -19 5 -12 2 6 2 18 0 25 -3 6 -5 1 -5 -13z"/>
<path d="M1553 553 c9 -2 23 -2 30 0 6 3 -1 5 -18 5 -16 0 -22 -2 -12 -5z"/>
<path d="M1970 550 c8 -5 17 -32 21 -62 6 -53 6 -53 8 -10 1 47 -12 82 -32 82
-8 0 -7 -4 3 -10z"/>
<path d="M2332 535 c0 -16 2 -22 5 -12 2 9 2 23 0 30 -3 6 -5 -1 -5 -18z"/>
<path d="M2284 515 c1 -18 9 -20 69 -23 64 -3 67 -2 66 20 -1 17 -3 18 -6 6
-4 -15 -16 -18 -63 -18 -48 0 -59 3 -63 18 -3 13 -4 12 -3 -3z"/>
<path d="M1760 493 l0 -41 64 -4 c35 -1 62 0 59 5 -2 4 -14 7 -27 7 -12 0 -27
5 -33 11 -8 8 -13 8 -17 0 -14 -23 -35 -11 -34 19 1 17 -2 33 -5 37 -4 3 -7
-12 -7 -34z"/>
<path d="M1815 523 c22 -2 47 -7 55 -10 8 -3 21 -5 29 -4 10 2 12 -6 9 -29 -3
-18 -1 -27 4 -22 5 5 8 22 6 38 -3 29 -4 29 -73 30 -38 1 -52 0 -30 -3z"/>
<path d="M1088 513 c12 -2 30 -2 40 0 9 3 -1 5 -23 4 -22 0 -30 -2 -17 -4z"/>
<path d="M1213 513 c26 -2 68 -2 95 0 26 2 4 3 -48 3 -52 0 -74 -1 -47 -3z"/>
<path d="M1732 490 c0 -19 2 -27 5 -17 2 9 2 25 0 35 -3 9 -5 1 -5 -18z"/>
<path d="M1493 494 c-3 -8 -1 -20 5 -26 16 -16 42 -2 42 22 0 24 -38 28 -47 4z"/>
<path d="M1550 485 c0 -14 4 -25 9 -25 4 0 6 11 3 25 -2 14 -6 25 -8 25 -2 0
-4 -11 -4 -25z"/>
<path d="M1830 507 c0 -2 6 -10 14 -16 11 -9 16 -9 22 1 4 7 4 10 -1 6 -4 -4
-14 -3 -22 3 -7 6 -13 9 -13 6z"/>
<path d="M1180 490 c-24 -16 6 -30 62 -30 40 0 78 17 78 36 0 9 -126 3 -140
-6z"/>
<path d="M1408 463 c7 -3 16 -2 19 1 4 3 -2 6 -13 5 -11 0 -14 -3 -6 -6z"/>
<path d="M1460 441 c14 -11 32 -21 40 -21 13 0 5 5 -52 35 -7 4 -2 -3 12 -14z"/>
<path d="M1780 420 l-205 -6 202 -2 c126 -1 204 2 208 8 3 6 5 9 3 8 -2 -1
-95 -5 -208 -8z"/>
</g>
</svg>
