<svg width="23" height="24" viewBox="0 0 23 24" fill="none" xmlns="http://www.w3.org/2000/svg">
<g clip-path="url(#clip0_138_1661)">
<path d="M11.086 9.36035C10.7685 9.36035 10.4542 9.42867 10.1609 9.5614C9.8676 9.69413 9.60111 9.88868 9.37663 10.1339C9.15216 10.3792 8.9741 10.6704 8.85261 10.9908C8.73113 11.3113 8.6686 11.6547 8.6686 12.0016C8.6686 12.3484 8.73113 12.6918 8.85261 13.0123C8.9741 13.3327 9.15216 13.6239 9.37663 13.8692C9.60111 14.1144 9.8676 14.309 10.1609 14.4417C10.4542 14.5744 10.7685 14.6427 11.086 14.6427C11.7271 14.6426 12.3419 14.3642 12.7951 13.8687C13.2484 13.3733 13.5029 12.7014 13.5028 12.001C13.5026 11.3005 13.2478 10.6287 12.7944 10.1335C12.3409 9.63831 11.726 9.36019 11.0849 9.36035H11.086ZM3.39784 9.36035C3.08038 9.36035 2.76604 9.42867 2.47275 9.5614C2.17946 9.69413 1.91297 9.88868 1.6885 10.1339C1.46403 10.3792 1.28596 10.6704 1.16448 10.9908C1.043 11.3113 0.980469 11.6547 0.980469 12.0016C0.980469 12.3484 1.043 12.6918 1.16448 13.0123C1.28596 13.3327 1.46403 13.6239 1.6885 13.8692C1.91297 14.1144 2.17946 14.309 2.47275 14.4417C2.76604 14.5744 3.08038 14.6427 3.39784 14.6427C4.03896 14.6426 4.65377 14.3642 5.10702 13.8687C5.56026 13.3733 5.8148 12.7014 5.81466 12.001C5.81451 11.3005 5.55969 10.6287 5.10624 10.1335C4.65279 9.63831 4.03787 9.36019 3.39674 9.36035H3.39784ZM18.7741 9.36035C18.4567 9.36035 18.1423 9.42867 17.849 9.5614C17.5557 9.69413 17.2892 9.88868 17.0648 10.1339C16.8403 10.3792 16.6622 10.6704 16.5407 10.9908C16.4193 11.3113 16.3567 11.6547 16.3567 12.0016C16.3567 12.3484 16.4193 12.6918 16.5407 13.0123C16.6622 13.3327 16.8403 13.6239 17.0648 13.8692C17.2892 14.1144 17.5557 14.309 17.849 14.4417C18.1423 14.5744 18.4567 14.6427 18.7741 14.6427C19.4152 14.6426 20.03 14.3642 20.4833 13.8687C20.9365 13.3733 21.1911 12.7014 21.1909 12.001C21.1908 11.3005 20.936 10.6287 20.4825 10.1335C20.0291 9.63831 19.4141 9.36019 18.773 9.36035H18.7741Z" fill="#A098AE"/>
</g>
<defs>
<clipPath id="clip0_138_1661">
<rect width="21.9661" height="24" fill="white" transform="translate(0.101562)"/>
</clipPath>
</defs>
</svg>
