<svg width="28" height="29" viewBox="0 0 28 29" fill="none" xmlns="http://www.w3.org/2000/svg">
<path d="M2.6835e-07 12.4768C2.6835e-07 13.0355 0.437308 13.4884 0.976744 13.4884C1.51618 13.4884 1.95349 13.0355 1.95349 12.4768H2.6835e-07ZM2.3748 19.3915C2.16837 18.8753 1.597 18.6302 1.09863 18.844C0.600255 19.0578 0.363584 19.6495 0.570015 20.1657L2.3748 19.3915ZM16.2558 27.6778L16.9618 26.4425L15.2806 25.4119L14.5746 26.6473L16.2558 27.6778ZM11.0382 26.4425L11.7442 27.6778L13.4253 26.6473L12.7193 25.4119L11.0382 26.4425ZM14.5746 26.6473C14.3236 27.0865 13.6764 27.0865 13.4253 26.6473L11.7442 27.6778C12.7517 29.4407 15.2483 29.4407 16.2558 27.6778L14.5746 26.6473ZM12.0465 2.02326H15.9535V2.77934e-07H12.0465V2.02326ZM26.0465 12.4768V13.8256H28V12.4768H26.0465ZM8.53349 22.919C6.8985 22.8897 6.04179 22.7821 5.37026 22.4939L4.6227 24.3632C5.67103 24.8129 6.86505 24.9127 8.49984 24.9418L8.53349 22.919ZM0.570015 20.1657C1.33004 22.0661 2.78784 23.576 4.6227 24.3632L5.37026 22.4939C4.01405 21.912 2.93656 20.7962 2.3748 19.3915L0.570015 20.1657ZM26.0465 13.8256C26.0465 15.4106 26.046 16.5488 25.9869 17.4468C25.9283 18.3359 25.8155 18.9156 25.6252 19.3915L27.43 20.1657C27.7354 19.4023 27.8704 18.5766 27.9358 17.5846C28.0005 16.6017 28 15.383 28 13.8256H26.0465ZM19.5001 24.9418C21.1349 24.9127 22.329 24.8129 23.3773 24.3632L22.6297 22.4939C21.9583 22.7821 21.1015 22.8897 19.4665 22.919L19.5001 24.9418ZM25.6252 19.3915C25.0634 20.7962 23.986 21.912 22.6297 22.4939L23.3773 24.3632C25.2121 23.576 26.6699 22.0661 27.43 20.1657L25.6252 19.3915ZM15.9535 2.02326C18.1039 2.02326 19.6482 2.02433 20.8527 2.14294C22.0428 2.26013 22.7999 2.48487 23.4036 2.86801L24.4243 1.1429C23.462 0.532212 22.3706 0.260043 21.0376 0.128774C19.7192 -0.00106536 18.0661 2.77934e-07 15.9535 2.77934e-07V2.02326ZM28 12.4768C28 10.2887 28.001 8.5766 27.8756 7.21105C27.7489 5.83044 27.4861 4.69997 26.8965 3.70342L25.2309 4.76057C25.6009 5.3858 25.8178 6.17005 25.931 7.40256C26.0455 8.65011 26.0465 10.2495 26.0465 12.4768H28ZM23.4036 2.86801C24.1484 3.3407 24.7745 3.98922 25.2309 4.76057L26.8965 3.70342C26.2791 2.65983 25.4319 1.78241 24.4243 1.1429L23.4036 2.86801ZM12.0465 2.77934e-07C9.93389 2.77934e-07 8.28084 -0.00106536 6.96238 0.128774C5.62938 0.260043 4.53789 0.532212 3.5757 1.1429L4.5964 2.86801C5.20007 2.48487 5.95728 2.26013 7.14728 2.14294C8.35181 2.02433 9.89606 2.02326 12.0465 2.02326V2.77934e-07ZM1.95349 12.4768C1.95349 10.2495 1.95452 8.65011 2.06904 7.40256C2.18219 6.17005 2.39918 5.3858 2.76911 4.76057L1.10349 3.70342C0.513859 4.69997 0.251076 5.83044 0.124333 7.21105C-0.00102862 8.5766 2.6835e-07 10.2887 2.6835e-07 12.4768H1.95349ZM3.5757 1.1429C2.56811 1.78241 1.72095 2.65983 1.10349 3.70342L2.76911 4.76057C3.2255 3.98922 3.85165 3.3407 4.5964 2.86801L3.5757 1.1429ZM12.7193 25.4119C12.4549 24.9492 12.2228 24.5409 11.9972 24.2202C11.7593 23.8824 11.4868 23.5783 11.1087 23.3505L10.1265 25.0995C10.1883 25.1366 10.2724 25.2044 10.4184 25.4119C10.5765 25.6366 10.7551 25.947 11.0382 26.4425L12.7193 25.4119ZM8.49984 24.9418C9.07167 24.9521 9.43388 24.9596 9.70998 24.9912C9.96799 25.0209 10.068 25.0642 10.1265 25.0995L11.1087 23.3505C10.7274 23.1207 10.3306 23.0267 9.92498 22.9802C9.53744 22.9358 9.06907 22.9285 8.53349 22.919L8.49984 24.9418ZM16.9618 26.4425C17.2449 25.947 17.4234 25.6366 17.5815 25.4119C17.7275 25.2044 17.8116 25.1366 17.8734 25.0995L16.8913 23.3505C16.5132 23.5783 16.2405 23.8824 16.0028 24.2202C15.7772 24.5409 15.5451 24.9492 15.2806 25.4119L16.9618 26.4425ZM19.4665 22.919C18.9309 22.9285 18.4625 22.9358 18.075 22.9802C17.6693 23.0267 17.2726 23.1207 16.8913 23.3505L17.8734 25.0995C17.932 25.0642 18.032 25.0209 18.29 24.9912C18.5661 24.9596 18.9283 24.9521 19.5001 24.9418L19.4665 22.919Z" fill="black"/>
<path d="M8.79053 13.1511H8.80225M13.9881 13.1511H13.9998M19.1974 13.1511H19.2091" stroke="black" stroke-width="2" stroke-linecap="round" stroke-linejoin="round"/>
</svg>
