<svg width="23" height="24" viewBox="0 0 23 24" fill="none" xmlns="http://www.w3.org/2000/svg">
<path d="M8.3067 0.249023L7.61929 3.49735C7.22832 3.69539 6.85458 3.92348 6.49616 4.18086L3.48001 3.1812L0.444824 8.71605L2.73126 10.9202C2.64193 11.6181 2.68239 11.9622 2.73126 12.3763L0.444824 14.5804L3.48001 20.1153L6.49616 19.1156C6.85458 19.373 7.22832 19.6011 7.61929 19.7991L8.3067 23.0474H14.3771L15.0645 19.7991C15.4555 19.6011 15.8292 19.373 16.1876 19.1156L19.2038 20.1153L22.2389 14.5804L19.9525 12.3763C19.9712 12.134 20.0052 11.8915 20.0054 11.6482C20.0063 11.3976 19.9688 11.1445 19.9525 10.9202L22.2389 8.71605L19.2038 3.1812L16.1876 4.18086C15.8292 3.92348 15.4555 3.69539 15.0645 3.49735L14.3771 0.249023H8.3067ZM10.0453 2.52886H12.6385L13.1736 5.05806L13.7108 5.2807C14.3185 5.53123 14.8866 5.87606 15.3966 6.30485L15.8492 6.68334L18.197 5.90632L19.4935 8.27077L17.6788 10.023L17.7655 10.6241C17.8676 11.2889 17.8477 12.0539 17.7655 12.6724L17.6788 13.2735L19.4935 15.0257L18.197 17.3901L15.8492 16.6131L15.3966 16.9916C14.8866 17.4204 14.3185 17.7652 13.7108 18.0158L13.1736 18.2384L12.6385 20.7676H10.0453L9.5102 18.2384L8.97296 18.0158C8.36524 17.7652 7.79715 17.4204 7.28721 16.9916L6.83458 16.6131L4.4868 17.3901L3.19024 15.0257L5.00501 13.2735L4.91829 12.6724C4.81251 11.9942 4.82875 11.218 4.91829 10.6241L5.00501 10.023L3.19024 8.27077L4.4868 5.90632L6.83458 6.68334L7.28721 6.30485C7.79715 5.87606 8.36524 5.53123 8.97296 5.2807L9.5102 5.05806L10.0453 2.52886ZM11.3419 7.08855C8.96235 7.08855 7.01013 9.14349 7.01013 11.6482C7.01013 14.153 8.96235 16.2079 11.3419 16.2079C13.7214 16.2079 15.6736 14.153 15.6736 11.6482C15.6736 9.14349 13.7214 7.08855 11.3419 7.08855ZM11.3419 9.36839C12.5509 9.36839 13.5078 10.3756 13.5078 11.6482C13.5078 12.9209 12.5509 13.9281 11.3419 13.9281C10.1329 13.9281 9.17601 12.9209 9.17601 11.6482C9.17601 10.3756 10.1329 9.36839 11.3419 9.36839Z" fill="black"/>
</svg>
