<svg width="116" height="146" viewBox="0 0 116 146" fill="none" xmlns="http://www.w3.org/2000/svg">
<path d="M76.4303 96.3116C76.0365 95.3937 75.7711 94.378 75.6522 93.255C75.1942 89.0222 75.8262 87.9352 76.5311 84.7893C77.204 84.0941 77.8541 83.319 78.4904 82.4456L76.2337 81.011H40.5278L37.7584 82.7755C38.3124 83.5152 38.8846 84.1745 39.4705 84.785C40.1801 87.9306 40.8026 89.0179 40.3541 93.255C40.2352 94.378 39.9694 95.3937 39.576 96.3116C33.7532 109.981 0.09375 103.628 0.09375 132.812C0.09375 137.624 16.6374 146 58.0008 146C99.3642 146 115.908 137.624 115.908 132.812C115.908 103.628 82.2486 109.981 76.4303 96.3116ZM98.5037 137.695C91.3717 139.477 78.5499 141.589 58.0008 141.589C37.4517 141.589 24.6299 139.477 17.4979 137.695C8.1457 135.369 5.28926 132.936 4.63008 132.246C4.73994 125.808 6.7084 121.183 10.8009 117.707C14.7284 114.375 20.185 112.423 25.4631 110.534C31.0066 108.556 36.6829 106.524 40.4915 102.764L55.1218 114.482L58.0011 116.79L60.8804 114.482L75.5106 102.764C79.3192 106.524 85.0002 108.556 90.5391 110.534C95.8172 112.423 101.274 114.375 105.206 117.707C109.294 121.183 111.262 125.808 111.372 132.246C110.717 132.937 107.861 135.369 98.5037 137.695Z" fill="#0D3F15"/>
<path d="M78.0234 60.9475V78.9257L79.9781 80.1733C81.4292 77.7227 82.8117 74.6661 84.2215 70.7988C87.9522 69.462 91.7426 66.3877 93.5051 58.8043C94.2237 55.7032 93.1846 52.798 91.2346 50.5615L78.0234 60.9475Z" fill="#0D3F15"/>
<path d="M24.7164 44.128L25.6504 47.9864L39.5983 58.9473H76.1509L91.2112 47.1133C92.0488 43.8029 93.0514 38.6832 92.9966 33.3188H23.6406C23.8237 36.5713 24.3273 39.432 24.8216 41.9805C24.7759 42.6934 24.7164 43.4062 24.7164 44.128Z" fill="#0D3F15"/>
<path d="M31.7845 70.799C33.2631 74.8536 34.7095 78.0126 36.2341 80.5211L37.7309 79.5675V60.9477L24.6709 50.6775C22.7848 52.9054 21.7916 55.757 22.5012 58.809C24.2587 66.3882 28.0535 69.4713 31.7845 70.799Z" fill="#0D3F15"/>
<path d="M47.8888 24.0601C50.5026 26.6088 54.1328 28.186 58.1289 28.186C62.1206 28.186 65.7508 26.6088 68.3647 24.0601C69.0651 23.3828 69.683 22.6343 70.2323 21.8321H90.6988C88.593 17.3098 84.7981 13.5714 78.3256 11.8961C75.318 8.2336 72.4709 6.22867 69.3625 5.20838C69.0511 4.82969 68.7171 4.47325 68.3647 4.12564C65.7508 1.5772 62.1209 0 58.1292 0C54.1328 0 50.5029 1.5772 47.8891 4.12593C47.3122 4.6874 46.7857 5.3022 46.3097 5.95264C45.9206 5.93039 45.4993 5.88591 45.0326 5.8189C40.4778 5.1773 36.7838 3.83164 35.6714 3.28814C35.0351 2.97618 29.0245 8.1626 27.3493 12.4043C26.0034 15.8039 25.0926 18.9361 24.502 21.8324H46.0261C46.5704 22.6343 47.193 23.3828 47.8888 24.0601ZM50.2053 6.38037C52.2379 4.40196 55.0302 3.19004 58.1292 3.19004C61.2282 3.19004 64.0161 4.40196 66.0531 6.38037C68.0811 8.35879 69.3309 11.0766 69.3353 14.0976C69.3306 17.1097 68.0811 19.8275 66.0531 21.8056C64.0161 23.784 61.2282 25.0048 58.1292 25.0048C55.0302 25.0048 52.2379 23.784 50.2053 21.8056C48.1727 19.8272 46.9231 17.1094 46.9231 14.0976C46.9231 11.0766 48.1727 8.35879 50.2053 6.38037Z" fill="#0D3F15"/>
<path d="M58.1301 18.3302C60.5289 18.3302 62.4789 16.4322 62.4789 14.0974C62.4789 11.7537 60.5289 9.8645 58.1301 9.8645C55.7269 9.8645 53.7812 11.7537 53.7812 14.0974C53.7812 16.4322 55.7266 18.3302 58.1301 18.3302Z" fill="#0D3F15"/>
</svg>
