<svg width="79" height="70" viewBox="0 0 79 70" fill="none" xmlns="http://www.w3.org/2000/svg">
<path opacity="0.2" d="M64.1875 19.6875V50.3125C64.1875 50.5998 64.1237 50.8842 63.9996 51.1496C63.8755 51.415 63.6937 51.6562 63.4644 51.8593C63.2352 52.0624 62.963 52.2236 62.6635 52.3335C62.364 52.4434 62.043 52.5 61.7188 52.5H54.3125V28.4375L41.9688 17.5H24.6875V10.9375C24.6875 10.6502 24.7513 10.3658 24.8754 10.1004C24.9995 9.83499 25.1813 9.59384 25.4106 9.39071C25.6398 9.18758 25.912 9.02645 26.2115 8.91652C26.511 8.80659 26.832 8.75001 27.1562 8.75002L51.8438 8.75L64.1875 19.6875Z" fill="#155D1C" stroke="#155D1C"/>
<path d="M65.9333 18.1407L53.5895 7.20324C53.1265 6.79298 52.4985 6.5625 51.8438 6.5625H27.1562C25.8472 6.56383 24.5922 7.02519 23.6666 7.84537C22.7409 8.66556 22.2202 9.77759 22.2188 10.9375V15.3125H17.2812C15.9722 15.3138 14.7172 15.7752 13.7916 16.5954C12.8659 17.4156 12.3452 18.5276 12.3438 19.6875V59.0625C12.3452 60.2224 12.8659 61.3344 13.7916 62.1546C14.7172 62.9748 15.9722 63.4362 17.2812 63.4375H51.8438C53.1528 63.4362 54.4078 62.9748 55.3334 62.1546C56.2591 61.3344 56.7798 60.2224 56.7812 59.0625V54.6875H61.7188C63.0278 54.6862 64.2828 54.2248 65.2084 53.4046C66.1341 52.5844 66.6548 51.4724 66.6562 50.3125V19.6875C66.6563 19.1074 66.3962 18.551 65.9333 18.1407ZM51.8438 59.0625H17.2812V19.6875H40.9462L51.8438 29.3437L51.8462 52.4576C51.8459 52.4718 51.8438 52.4857 51.8438 52.5C51.8438 52.5144 51.8459 52.5283 51.8462 52.5426L51.8468 59.0624L51.8438 59.0625ZM61.7188 50.3125H56.7812V28.4375C56.7813 27.8574 56.5212 27.301 56.0583 26.8907L43.7145 15.9532C43.2515 15.543 42.6235 15.3125 41.9688 15.3125H27.1562V10.9375H50.8212L61.7188 20.5937V50.3125ZM44.4375 41.5625C44.4375 42.1427 44.1774 42.6991 43.7144 43.1093C43.2514 43.5195 42.6235 43.75 41.9688 43.75H27.1562C26.5015 43.75 25.8736 43.5195 25.4106 43.1093C24.9476 42.6991 24.6875 42.1427 24.6875 41.5625C24.6875 40.9823 24.9476 40.4259 25.4106 40.0157C25.8736 39.6055 26.5015 39.375 27.1562 39.375H41.9688C42.6235 39.375 43.2514 39.6055 43.7144 40.0157C44.1774 40.4259 44.4375 40.9823 44.4375 41.5625ZM44.4375 50.3125C44.4375 50.8927 44.1774 51.4491 43.7144 51.8593C43.2514 52.2695 42.6235 52.5 41.9688 52.5H27.1562C26.5015 52.5 25.8736 52.2695 25.4106 51.8593C24.9476 51.4491 24.6875 50.8927 24.6875 50.3125C24.6875 49.7323 24.9476 49.1759 25.4106 48.7657C25.8736 48.3555 26.5015 48.125 27.1562 48.125H41.9688C42.6235 48.125 43.2514 48.3555 43.7144 48.7657C44.1774 49.1759 44.4375 49.7323 44.4375 50.3125Z" fill="#155D1C" stroke="#155D1C"/>
</svg>
