<svg width="158" height="155" viewBox="0 0 158 155" fill="none" xmlns="http://www.w3.org/2000/svg">
<g clip-path="url(#clip0_63_2225)">
<path d="M118 58.6444H83.5555V22.7514C83.5555 21.1869 82.9498 19.6791 81.8372 18.5553L80.1312 16.8049C78.9692 15.6124 77.3538 14.9413 75.6726 14.9413H23.1996C19.7877 14.9413 17.0186 17.6579 17.0186 21.005V148.933C17.0186 152.28 19.7877 154.996 23.1996 154.996H118C121.412 154.996 124.181 152.28 124.181 148.933V64.704C124.181 61.3609 121.412 58.6444 118 58.6444ZM111.819 142.877H29.3807V27.0687H71.1893V64.7121C71.1893 68.0593 73.9584 70.7758 77.3703 70.7758H111.811V142.873H111.819V142.877ZM140.977 47.6489C140.977 50.996 138.208 54.1006 134.796 54.1006H94.1704C90.7667 54.1006 87.9894 51.3841 87.9894 48.037V6.06815C87.9894 3.59416 89.5264 1.36677 91.867 0.437001C94.1993 -0.488722 96.8818 0.0772219 98.6373 1.86803L139.263 43.4407C140.368 44.5807 140.977 46.0844 140.977 47.6489ZM41.9117 99.0649H100.978V107.15H41.9117V99.0649ZM41.9117 120.627H100.978V128.712H41.9117V120.627Z" fill="#F0F0F0" stroke="#F0F0F0"/>
</g>
<defs>
<clipPath id="clip0_63_2225">
<rect width="158" height="155" fill="white"/>
</clipPath>
</defs>
</svg>
