<svg width="166" height="154" viewBox="0 0 166 155" fill="none" xmlns="http://www.w3.org/2000/svg">
<path d="M89.916 19.3751L94.8068 14.8083C93.5099 13.5972 91.7503 12.9168 89.916 12.9168V19.3751ZM131.416 58.1251H138.333C138.333 56.4122 137.604 54.7695 136.307 53.5583L131.416 58.1251ZM69.166 83.9584C69.166 80.3915 66.0693 77.5001 62.2494 77.5001C58.4294 77.5001 55.3327 80.3915 55.3327 83.9584H69.166ZM55.3327 103.333C55.3327 106.9 58.4294 109.792 62.2494 109.792C66.0693 109.792 69.166 106.9 69.166 103.333H55.3327ZM58.791 58.1251C54.9711 58.1251 51.8744 61.0166 51.8744 64.5834C51.8744 68.1504 54.9711 71.0418 58.791 71.0418V58.1251ZM65.7077 71.0418C69.5278 71.0418 72.6244 68.1504 72.6244 64.5834C72.6244 61.0166 69.5278 58.1251 65.7077 58.1251V71.0418ZM58.791 38.7501C54.9711 38.7501 51.8744 41.6416 51.8744 45.2084C51.8744 48.7752 54.9711 51.6668 58.791 51.6668V38.7501ZM65.7077 51.6668C69.5278 51.6668 72.6244 48.7752 72.6244 45.2084C72.6244 41.6416 69.5278 38.7501 65.7077 38.7501V51.6668ZM82.9994 19.3751V47.7918H96.8327V19.3751H82.9994ZM100.983 64.5834H131.416V51.6668H100.983V64.5834ZM82.9994 47.7918C82.9994 49.4937 82.9938 51.1586 83.1163 52.5595C83.2456 54.0358 83.5506 55.7779 84.5072 57.5308L96.8327 51.6668C97.0354 52.0382 96.9634 52.1852 96.9039 51.5077C96.8382 50.7547 96.8327 49.7068 96.8327 47.7918H82.9994ZM100.983 51.6668C98.9319 51.6668 97.8093 51.6617 97.0028 51.6002C96.2773 51.5449 96.435 51.4775 96.8327 51.6668L90.5524 63.1756C92.4296 64.0688 94.2957 64.3534 95.8768 64.474C97.377 64.5886 99.1602 64.5834 100.983 64.5834V51.6668ZM84.5072 57.5308C85.8331 59.9612 87.9496 61.9373 90.5524 63.1756L96.8327 51.6668L84.5072 57.5308ZM55.3327 83.9584V103.333H69.166V83.9584H55.3327ZM58.791 71.0418H65.7077V58.1251H58.791V71.0418ZM58.791 51.6668H65.7077V38.7501H58.791V51.6668ZM89.916 12.9168H56.716V25.8334H89.916V12.9168ZM27.666 40.0418V114.958H41.4994V40.0418H27.666ZM56.716 142.083H109.283V129.167H56.716V142.083ZM138.333 114.958V58.1251H124.499V114.958H138.333ZM136.307 53.5583L94.8068 14.8083L85.0253 23.9418L126.525 62.6918L136.307 53.5583ZM109.283 142.083C113.043 142.083 116.278 142.089 118.931 141.886C121.666 141.677 124.386 141.217 127.003 139.972L120.723 128.463C120.38 128.626 119.684 128.869 117.805 129.012C115.845 129.162 113.271 129.167 109.283 129.167V142.083ZM124.499 114.958C124.499 118.682 124.494 121.086 124.334 122.916C124.181 124.67 123.92 125.321 123.745 125.641L136.071 131.505C137.404 129.061 137.898 126.521 138.121 123.968C138.338 121.49 138.333 118.469 138.333 114.958H124.499ZM127.003 139.972C130.908 138.114 134.082 135.15 136.071 131.505L123.745 125.641C123.082 126.856 122.025 127.843 120.723 128.463L127.003 139.972ZM27.666 114.958C27.666 118.469 27.6606 121.49 27.8775 123.968C28.1009 126.521 28.5942 129.061 29.9276 131.505L42.2532 125.641C42.079 125.321 41.8184 124.67 41.6649 122.916C41.5048 121.086 41.4994 118.682 41.4994 114.958H27.666ZM56.716 129.167C52.7282 129.167 50.1533 129.162 48.1936 129.012C46.3145 128.869 45.6179 128.626 45.2759 128.463L38.9957 139.972C41.6129 141.217 44.3326 141.677 47.0671 141.886C49.7208 142.089 52.9565 142.083 56.716 142.083V129.167ZM29.9276 131.505C31.917 135.15 35.0913 138.114 38.9957 139.972L45.2759 128.463C43.9745 127.843 42.9164 126.856 42.2532 125.641L29.9276 131.505ZM56.716 12.9168C52.9565 12.9168 49.7208 12.9117 47.0671 13.1142C44.3326 13.3228 41.6129 13.7834 38.9957 15.0285L45.2759 26.5373C45.6179 26.3746 46.3145 26.1313 48.1936 25.988C50.1533 25.8385 52.7282 25.8334 56.716 25.8334V12.9168ZM41.4994 40.0418C41.4994 36.3182 41.5048 33.9139 41.6649 32.0841C41.8184 30.3295 42.079 29.679 42.2532 29.3597L29.9276 23.4957C28.5942 25.9394 28.1009 28.479 27.8775 31.0322C27.6606 33.5101 27.666 36.5313 27.666 40.0418H41.4994ZM38.9957 15.0285C35.0913 16.8861 31.917 19.85 29.9276 23.4957L42.2532 29.3597C42.9164 28.1445 43.9745 27.1565 45.2759 26.5373L38.9957 15.0285Z" fill="#133F16"/>
</svg>
