<svg width="176" height="195" viewBox="0 0 176 195" fill="none" xmlns="http://www.w3.org/2000/svg">
<path d="M77.2148 109.449H87.9992M87.9992 109.449H98.7835M87.9992 109.449V121.397M87.9992 109.449V97.5" stroke="#1F4A1C" stroke-width="9.03529" stroke-linecap="round"/>
<path d="M34.0781 67.3284C34.0781 62.056 34.0781 59.4197 34.4521 57.2238C36.0982 47.557 42.9229 39.9955 51.6479 38.1716C53.6298 37.7573 56.0092 37.7573 60.768 37.7573C62.8529 37.7573 63.8955 37.7573 64.8974 37.8612C69.2169 38.3087 73.3143 40.1891 76.6543 43.2567C77.4289 43.9682 78.166 44.785 79.6402 46.4185L82.6075 49.7059C87.0065 54.5795 89.2059 57.0164 91.8395 58.6399C93.2862 59.5318 94.8213 60.2361 96.4136 60.739C99.3119 61.6544 102.422 61.6544 108.643 61.6544H110.658C124.852 61.6544 131.949 61.6544 136.563 66.2513C136.987 66.6742 137.391 67.1217 137.772 67.5918C141.921 72.7029 141.921 80.5662 141.921 96.2926V109.449C141.921 131.979 141.921 143.244 135.604 150.243C129.287 157.243 119.119 157.243 98.784 157.243H77.2154C56.8803 157.243 46.7128 157.243 40.3954 150.243C34.0781 143.244 34.0781 131.979 34.0781 109.449V67.3284Z" stroke="#1F4A1C" stroke-width="9.03529"/>
</svg>
