<svg width="20" height="20" viewBox="0 0 20 20" fill="none" xmlns="http://www.w3.org/2000/svg">
<path d="M19.4628 8.65021C19.4623 8.64975 19.4618 8.6493 19.4614 8.64884L11.3021 0.536522C10.9544 0.190575 10.492 0 10.0001 0C9.50828 0 9.0459 0.190423 8.69796 0.536371L0.542984 8.6446C0.540237 8.64733 0.53749 8.65021 0.534743 8.65294C-0.179441 9.36714 -0.17822 10.5259 0.538253 11.2383C0.865587 11.5639 1.29791 11.7525 1.76015 11.7722C1.77892 11.7741 1.79784 11.775 1.81692 11.775H2.14212V17.7451C2.14212 18.9265 3.10886 19.8877 4.29733 19.8877H7.48949C7.81301 19.8877 8.07549 19.6269 8.07549 19.3051V14.6245C8.07549 14.0854 8.51651 13.6469 9.05871 13.6469H10.9415C11.4837 13.6469 11.9248 14.0854 11.9248 14.6245V19.3051C11.9248 19.6269 12.1871 19.8877 12.5108 19.8877H15.7029C16.8914 19.8877 17.8581 18.9265 17.8581 17.7451V11.775H18.1597C18.6514 11.775 19.1138 11.5845 19.4618 11.2386C20.1791 10.525 20.1794 9.36426 19.4628 8.65021Z" fill="white"/>
</svg>
