<svg width="79" height="70" viewBox="0 0 79 70" fill="none" xmlns="http://www.w3.org/2000/svg">
<g clip-path="url(#clip0_29_470)">
<path d="M14.9139 20.2808L11.5292 19.1514C8.43574 18.1189 4.98335 19.5045 3.81825 22.2434C2.653 24.985 4.21757 28.0421 7.31076 29.0746L14.9139 31.6141V20.2808Z" fill="#155D1C" stroke="#155D1C" stroke-width="0.390625"/>
<path d="M60.0905 22.4643C60.0562 22.5723 60.0227 22.6748 59.9893 22.7799V59.5613C59.9893 60.5804 59.517 61.5172 58.7632 62.1831C58.0102 62.853 56.9545 63.2694 55.8046 63.2694H25.1469C25.2959 63.0538 25.4322 62.8273 25.5371 62.5806C25.7364 62.109 25.8307 61.6289 25.8307 61.1573C25.8307 60.3446 25.5487 59.5507 25.0398 58.8847C24.5288 58.2188 23.7963 57.6864 22.8796 57.3804L18.1617 55.8061H18.1602C17.6294 55.6282 17.0893 55.5445 16.5561 55.5445C15.6374 55.5445 14.7406 55.7939 13.9906 56.2456C13.2392 56.6984 12.6368 57.3481 12.2915 58.1597C12.093 58.6286 11.9971 59.1087 11.9971 59.5803C11.9971 60.3972 12.281 61.1912 12.7897 61.8556C13.3009 62.5202 14.0333 63.0552 14.9498 63.3599L19.6686 64.9342C20.2003 65.1123 20.7418 65.1956 21.2734 65.1956C22.1924 65.1956 23.0889 64.9449 23.839 64.4947C23.9707 64.4151 24.0915 64.3222 24.214 64.2306C27.9865 67.0396 33.8858 69.8055 42.6768 69.9915C61.0346 70.377 65.917 58.324 68.5699 45.1119C68.5699 45.1119 74.9041 19.8012 75.3339 18.464C77.4831 11.7755 64.1733 9.75921 60.0905 22.4643Z" fill="#155D1C" stroke="#155D1C" stroke-width="0.390625"/>
<path d="M22.0623 33.9415V6.01973H52.8415V50.6838H26.4721C26.412 51.1582 26.2896 51.6314 26.092 52.0964C25.593 53.2744 24.7061 54.2315 23.6132 54.8892C23.3256 55.0617 23.0252 55.2126 22.7141 55.3433L23.617 55.644C24.9457 56.0861 26.0282 56.8732 26.7704 57.8411C27.3736 58.6283 27.7531 59.5366 27.8756 60.4883H55.8049C56.0985 60.4883 56.3494 60.3859 56.5441 60.2174C56.7358 60.0448 56.85 59.8212 56.85 59.5608V0.927363C56.85 0.665957 56.7358 0.444746 56.5441 0.272207C56.3494 0.101035 56.0985 0.00123047 55.8049 0H19.0989C18.8053 0.00123047 18.5536 0.101035 18.3595 0.272207C18.1679 0.444746 18.0553 0.66582 18.0537 0.927363V32.4574L20.7934 33.3685C21.2469 33.5223 21.6698 33.7151 22.0623 33.9415ZM37.4516 57.523C36.4399 57.523 35.6209 56.7952 35.6209 55.9002C35.6209 55.0037 36.4399 54.2773 37.4516 54.2773C38.4624 54.2773 39.283 55.0037 39.283 55.9002C39.283 56.7952 38.4624 57.523 37.4516 57.523Z" fill="#155D1C" stroke="#155D1C" stroke-width="0.390625"/>
<path d="M18.2653 53.7975C18.797 53.974 19.3384 54.0577 19.87 54.0577C20.7896 54.0577 21.6856 53.8083 22.4355 53.3568C23.1869 52.9039 23.7879 52.2529 24.1338 51.4427C24.3332 50.9722 24.4274 50.4925 24.4274 50.0207C24.4274 49.2064 24.1462 48.4112 23.6365 47.7481C23.1263 47.0823 22.393 46.5486 21.4781 46.2426L16.7584 44.6669C16.2276 44.4904 15.6867 44.4067 15.1528 44.4067C14.2341 44.4067 13.338 44.6561 12.5881 45.1077C11.8374 45.5605 11.2351 46.2116 10.8897 47.0231C10.689 47.4922 10.5953 47.972 10.5947 48.4451C10.5947 49.2592 10.8776 50.0531 11.3872 50.719C11.8976 51.385 12.6308 51.916 13.548 52.2234L18.2653 53.7975Z" fill="#155D1C" stroke="#155D1C" stroke-width="0.390625"/>
<path d="M16.8438 42.6585C17.3755 42.8392 17.9169 42.92 18.4485 42.92C19.3673 42.92 20.2655 42.672 21.0155 42.2189C21.7654 41.7661 22.3679 41.1178 22.7123 40.3076C22.9132 39.833 23.0059 39.3545 23.0059 38.8816C23.0075 38.0702 22.7254 37.2749 22.2165 36.6091C21.7055 35.9445 20.9715 35.4121 20.0548 35.1048L15.3369 33.5304C14.8044 33.3524 14.2644 33.269 13.7313 33.269C12.8126 33.269 11.9165 33.5183 11.166 33.9726C10.4159 34.4228 9.81354 35.0739 9.46668 35.8867C9.26826 36.3556 9.17383 36.8356 9.17383 37.3073C9.17383 38.1213 9.45604 38.9153 9.96568 39.5812C10.4761 40.2458 11.2101 40.7796 12.1268 41.0868L16.8438 42.6585Z" fill="#155D1C" stroke="#155D1C" stroke-width="0.390625"/>
<path d="M34.969 25.7772L36.6325 24.8283C37.1657 24.5264 37.3208 23.8983 36.9778 23.4265L34.6252 20.1753C34.2838 19.7036 33.5748 19.5688 33.0417 19.8695C33.0295 19.876 32.8433 19.9813 30.8299 21.127C28.4841 22.4614 29.7445 28.1779 33.0926 32.8025C36.4415 37.4272 41.784 40.8238 44.1282 39.4894C46.1424 38.3451 46.3271 38.2398 46.3401 38.2305C46.8724 37.9299 47.0276 37.2992 46.6862 36.8274L44.3319 33.5789C43.9912 33.1071 43.2816 32.9697 42.7484 33.2743L41.0843 34.2204C40.599 34.4954 39.9564 34.4079 39.5859 34.017C39.5859 34.017 38.4677 33.002 36.7982 30.6957C35.1295 28.3922 34.5529 27.0658 34.5529 27.0658C34.3051 26.6049 34.4839 26.0523 34.969 25.7772Z" fill="#155D1C" stroke="#155D1C" stroke-width="0.390625"/>
</g>
<defs>
<clipPath id="clip0_29_470">
<rect width="79" height="70" fill="white"/>
</clipPath>
</defs>
</svg>
