<svg width="24" height="25" viewBox="0 0 24 25" fill="none" xmlns="http://www.w3.org/2000/svg">
<path d="M23.5995 21.9424L17.9995 16.3424C19.2995 14.6424 20.0995 12.5424 20.0995 10.2424C20.0995 4.74243 15.5995 0.242432 10.0995 0.242432C4.59951 0.242432 -0.000488281 4.74243 -0.000488281 10.2424C-0.000488281 15.7424 4.49951 20.2424 9.99951 20.2424C12.2995 20.2424 14.4995 19.4424 16.1995 18.0424L21.7995 23.6424C21.9995 23.8424 22.3995 24.0424 22.6995 24.0424C22.9995 24.0424 23.2995 23.9424 23.5995 23.6424C24.0995 23.2424 24.0995 22.4424 23.5995 21.9424ZM2.49951 10.2424C2.49951 6.14243 5.89951 2.74243 9.99951 2.74243C14.0995 2.74243 17.4995 6.14243 17.4995 10.2424C17.4995 14.3424 14.0995 17.7424 9.99951 17.7424C5.89951 17.7424 2.49951 14.4424 2.49951 10.2424Z" fill="#155D1C"/>
</svg>
