<?xml version="1.0" encoding="utf-8"?><!-- Uploaded to: SVG Repo, www.svgrepo.com, Generator: SVG Repo Mixer Tools -->
<svg width="800px" height="800px" viewBox="0 0 24 24" fill="none" xmlns="http://www.w3.org/2000/svg">
<path fill-rule="evenodd" clip-rule="evenodd" d="M11 5C9.89543 5 9 5.89543 9 7V9H7C5.89543 9 5 9.89543 5 11V13C5 14.1046 5.89543 15 7 15H9V17C9 18.1046 9.89543 19 11 19H13C14.1046 19 15 18.1046 15 17V15H17C18.1046 15 19 14.1046 19 13V11C19 9.89543 18.1046 9 17 9H15V7C15 5.89543 14.1046 5 13 5H11ZM11 7H13V9.5C13 10.3284 13.6716 11 14.5 11H17V13H14.5C13.6716 13 13 13.6716 13 14.5V17H11V14.5C11 13.6716 10.3284 13 9.5 13H7V11H9.5C10.3284 11 11 10.3284 11 9.5V7Z" fill="#0F0F0F"/>
<path fill-rule="evenodd" clip-rule="evenodd" d="M20 1C21.6569 1 23 2.34315 23 4V20C23 21.6569 21.6569 23 20 23H4C2.34315 23 1 21.6569 1 20V4C1 2.34315 2.34315 1 4 1H20ZM20 3C20.5523 3 21 3.44772 21 4V20C21 20.5523 20.5523 21 20 21H4C3.44772 21 3 20.5523 3 20V4C3 3.44772 3.44772 3 4 3H20Z" fill="#0F0F0F"/>
</svg>