<svg width="27" height="29" viewBox="0 0 27 29" fill="none" xmlns="http://www.w3.org/2000/svg">
<path d="M20.9747 17.1608V9.40529C20.9747 4.98907 17.5617 1.39648 13.3662 1.39648C9.17078 1.39648 5.75778 4.98907 5.75778 9.40529V17.1613C4.40523 17.574 3.40723 18.8838 3.40723 20.4936C3.40723 22.3755 4.8619 23.9067 6.65009 23.9067H9.61139V23.9472C9.61138 26.1267 11.2957 27.8996 13.3662 27.8996C15.4368 27.8996 17.1211 26.1267 17.1211 23.9472V23.9067H20.0824C21.8706 23.9067 23.3253 22.3755 23.3253 20.426C23.3252 18.872 22.3272 17.5718 20.9747 17.1608ZM8.19439 9.40529C8.19439 6.4034 10.5144 3.96131 13.3662 3.96131C16.2181 3.96131 18.5381 6.4034 18.5381 9.40529V17.0129H8.19439V9.40529ZM14.6845 23.9472C14.6845 24.7124 14.0932 25.3348 13.3662 25.3348C12.6393 25.3348 12.048 24.7124 12.048 23.9472V23.9067H14.6845V23.9472H14.6845ZM20.0824 21.3419H6.65009C6.20553 21.3419 5.84384 20.9612 5.84384 20.426C5.84384 19.9585 6.20552 19.5777 6.65009 19.5777H20.0824C20.527 19.5777 20.8886 19.9585 20.8886 20.4936C20.8886 20.9612 20.527 21.3419 20.0824 21.3419Z" fill="#212121"/>
</svg>
