<svg width="71" height="70" viewBox="0 0 71 70" fill="none" xmlns="http://www.w3.org/2000/svg">
<path d="M30.7589 35.4802C41.883 35.4796 45.8856 25.6103 46.9333 17.5033C48.2241 7.51642 42.8941 0 30.7589 0C18.6251 0 13.2925 7.51585 14.5843 17.5033C15.6331 25.6103 19.6345 35.4809 30.7589 35.4802Z" fill="#155D1C"/>
<path d="M55.0835 39.5883C55.4414 39.5883 55.797 39.5978 56.1502 39.6152C55.6208 38.9461 55.0081 38.3559 54.291 37.8814C52.1535 36.4678 49.3851 36.004 46.9378 35.1519C45.7465 34.7373 44.6797 34.3254 43.6783 33.8564C40.2983 37.1408 35.8907 38.8589 30.758 38.8594C25.627 38.8594 21.2198 37.1413 17.8402 33.8564C16.8388 34.3255 15.7718 34.7373 14.5807 35.1519C12.1334 36.0041 9.36516 36.4678 7.22752 37.8814C3.53078 40.3263 2.57542 45.8262 1.8248 49.5778C1.20532 52.6748 0.789147 55.8352 0.667678 58.9808C0.573575 61.4175 1.93129 61.7591 4.23184 62.4947C7.11237 63.4152 10.0866 64.0986 13.0809 64.6588C18.8635 65.7409 24.8241 66.5723 30.7591 66.6095C33.6348 66.5913 36.5164 66.3857 39.3809 66.0567C37.2599 63.3336 36.0159 60.0352 36.0159 56.4837C36.016 47.1674 44.5696 39.5883 55.0835 39.5883Z" fill="#155D1C"/>
<path d="M55.0832 42.9673C46.6589 42.9673 39.8291 49.019 39.8291 56.4836C39.8291 63.9482 46.6587 69.9999 55.0832 69.9999C63.5077 69.9999 70.3374 63.9482 70.3374 56.4836C70.3373 49.0189 63.5075 42.9673 55.0832 42.9673ZM61.7569 58.8025H57.7004V62.3967C57.7004 63.6776 56.5287 64.7159 55.0833 64.7159C53.6378 64.7159 52.466 63.6776 52.466 62.3967V58.8025H48.4096C46.9641 58.8025 45.7923 57.7643 45.7923 56.4833C45.7923 55.2025 46.964 54.1642 48.4096 54.1642H52.466V50.57C52.466 49.2891 53.6378 48.2508 55.0833 48.2508C56.5288 48.2508 57.7004 49.2891 57.7004 50.57V54.1642H61.7569C63.2024 54.1642 64.3742 55.2025 64.3742 56.4833C64.3741 57.7644 63.2025 58.8025 61.7569 58.8025Z" fill="#155D1C"/>
</svg>
